<mxfile host="app.diagrams.net" modified="2022-10-11T20:15:18.381Z" agent="5.0 (Macintosh; Intel Mac OS X 10_15_7) AppleWebKit/605.1.15 (KHTML, like Gecko) Version/16.0 Safari/605.1.15" etag="D1eXcHP0T8QOz0chVUJU" version="20.4.0" type="github">
  <diagram name="Page-1" id="b5b7bab2-c9e2-2cf4-8b2a-24fd1a2a6d21">
    <mxGraphModel dx="2012" dy="1963" grid="1" gridSize="10" guides="1" tooltips="1" connect="1" arrows="1" fold="1" page="1" pageScale="1" pageWidth="827" pageHeight="1169" background="none" math="0" shadow="0">
      <root>
        <mxCell id="0" />
        <mxCell id="1" parent="0" />
        <mxCell id="heCBkYRGPCY8Ef2x84Ss-32" style="edgeStyle=orthogonalEdgeStyle;rounded=0;orthogonalLoop=1;jettySize=auto;html=1;exitX=0.5;exitY=0;exitDx=0;exitDy=0;exitPerimeter=0;entryX=0.5;entryY=0;entryDx=0;entryDy=0;" edge="1" parent="1" source="heCBkYRGPCY8Ef2x84Ss-27" target="heCBkYRGPCY8Ef2x84Ss-28">
          <mxGeometry relative="1" as="geometry">
            <mxPoint x="-614" y="1.1368683772161603e-13" as="targetPoint" />
          </mxGeometry>
        </mxCell>
        <mxCell id="heCBkYRGPCY8Ef2x84Ss-27" value="Actor" style="shape=umlActor;verticalLabelPosition=bottom;verticalAlign=top;html=1;outlineConnect=0;" vertex="1" parent="1">
          <mxGeometry x="-790" y="20" width="30" height="60" as="geometry" />
        </mxCell>
        <mxCell id="heCBkYRGPCY8Ef2x84Ss-28" value="WindowLogo" style="swimlane;fontStyle=0;childLayout=stackLayout;horizontal=1;startSize=30;horizontalStack=0;resizeParent=1;resizeParentMax=0;resizeLast=0;collapsible=1;marginBottom=0;" vertex="1" parent="1">
          <mxGeometry x="-670" y="60" width="140" height="80" as="geometry" />
        </mxCell>
        <mxCell id="heCBkYRGPCY8Ef2x84Ss-30" value="Logowanie" style="text;strokeColor=none;fillColor=none;align=left;verticalAlign=middle;spacingLeft=4;spacingRight=4;overflow=hidden;points=[[0,0.5],[1,0.5]];portConstraint=eastwest;rotatable=0;" vertex="1" parent="heCBkYRGPCY8Ef2x84Ss-28">
          <mxGeometry y="30" width="140" height="30" as="geometry" />
        </mxCell>
        <mxCell id="heCBkYRGPCY8Ef2x84Ss-31" value="Rejestracja" style="text;strokeColor=none;fillColor=none;align=left;verticalAlign=middle;spacingLeft=4;spacingRight=4;overflow=hidden;points=[[0,0.5],[1,0.5]];portConstraint=eastwest;rotatable=0;" vertex="1" parent="heCBkYRGPCY8Ef2x84Ss-28">
          <mxGeometry y="60" width="140" height="20" as="geometry" />
        </mxCell>
        <mxCell id="heCBkYRGPCY8Ef2x84Ss-33" value="Rejestracja" style="swimlane;fontStyle=0;childLayout=stackLayout;horizontal=1;startSize=30;horizontalStack=0;resizeParent=1;resizeParentMax=0;resizeLast=0;collapsible=1;marginBottom=0;" vertex="1" parent="1">
          <mxGeometry x="-750" y="200" width="140" height="120" as="geometry" />
        </mxCell>
        <mxCell id="heCBkYRGPCY8Ef2x84Ss-34" value="Imię" style="text;strokeColor=none;fillColor=none;align=left;verticalAlign=middle;spacingLeft=4;spacingRight=4;overflow=hidden;points=[[0,0.5],[1,0.5]];portConstraint=eastwest;rotatable=0;" vertex="1" parent="heCBkYRGPCY8Ef2x84Ss-33">
          <mxGeometry y="30" width="140" height="30" as="geometry" />
        </mxCell>
        <mxCell id="heCBkYRGPCY8Ef2x84Ss-35" value="Nazwisko" style="text;strokeColor=none;fillColor=none;align=left;verticalAlign=middle;spacingLeft=4;spacingRight=4;overflow=hidden;points=[[0,0.5],[1,0.5]];portConstraint=eastwest;rotatable=0;" vertex="1" parent="heCBkYRGPCY8Ef2x84Ss-33">
          <mxGeometry y="60" width="140" height="30" as="geometry" />
        </mxCell>
        <mxCell id="heCBkYRGPCY8Ef2x84Ss-36" value="e-mail" style="text;strokeColor=none;fillColor=none;align=left;verticalAlign=middle;spacingLeft=4;spacingRight=4;overflow=hidden;points=[[0,0.5],[1,0.5]];portConstraint=eastwest;rotatable=0;" vertex="1" parent="heCBkYRGPCY8Ef2x84Ss-33">
          <mxGeometry y="90" width="140" height="30" as="geometry" />
        </mxCell>
        <mxCell id="heCBkYRGPCY8Ef2x84Ss-43" style="edgeStyle=orthogonalEdgeStyle;rounded=0;orthogonalLoop=1;jettySize=auto;html=1;exitX=0;exitY=0.5;exitDx=0;exitDy=0;entryX=0.5;entryY=0;entryDx=0;entryDy=0;" edge="1" parent="1" source="heCBkYRGPCY8Ef2x84Ss-31" target="heCBkYRGPCY8Ef2x84Ss-33">
          <mxGeometry relative="1" as="geometry">
            <Array as="points">
              <mxPoint x="-680" y="130" />
            </Array>
          </mxGeometry>
        </mxCell>
        <mxCell id="heCBkYRGPCY8Ef2x84Ss-44" style="edgeStyle=orthogonalEdgeStyle;rounded=0;orthogonalLoop=1;jettySize=auto;html=1;entryX=0.5;entryY=0;entryDx=0;entryDy=0;exitX=0.438;exitY=1.05;exitDx=0;exitDy=0;exitPerimeter=0;" edge="1" parent="1" source="heCBkYRGPCY8Ef2x84Ss-31">
          <mxGeometry relative="1" as="geometry">
            <mxPoint x="-620" y="170" as="sourcePoint" />
            <mxPoint x="-517.5" y="200" as="targetPoint" />
            <Array as="points">
              <mxPoint x="-623" y="190" />
              <mxPoint x="-517" y="190" />
            </Array>
          </mxGeometry>
        </mxCell>
        <mxCell id="heCBkYRGPCY8Ef2x84Ss-47" style="edgeStyle=orthogonalEdgeStyle;rounded=0;orthogonalLoop=1;jettySize=auto;html=1;entryX=0;entryY=0.5;entryDx=0;entryDy=0;" edge="1" parent="1" target="heCBkYRGPCY8Ef2x84Ss-30">
          <mxGeometry relative="1" as="geometry">
            <mxPoint x="-700" y="115" as="targetPoint" />
            <mxPoint x="-690" y="320" as="sourcePoint" />
            <Array as="points">
              <mxPoint x="-684" y="350" />
              <mxPoint x="-784" y="350" />
              <mxPoint x="-784" y="105" />
            </Array>
          </mxGeometry>
        </mxCell>
        <mxCell id="heCBkYRGPCY8Ef2x84Ss-107" style="edgeStyle=orthogonalEdgeStyle;rounded=0;orthogonalLoop=1;jettySize=auto;html=1;exitX=0;exitY=0.3;exitDx=0;exitDy=0;entryX=0.25;entryY=0;entryDx=0;entryDy=0;startArrow=classic;startFill=1;" edge="1" parent="1" source="heCBkYRGPCY8Ef2x84Ss-53" target="heCBkYRGPCY8Ef2x84Ss-33">
          <mxGeometry relative="1" as="geometry" />
        </mxCell>
        <mxCell id="heCBkYRGPCY8Ef2x84Ss-53" value="" style="shape=datastore;whiteSpace=wrap;html=1;" vertex="1" parent="1">
          <mxGeometry x="-520" y="10" width="60" height="60" as="geometry" />
        </mxCell>
        <mxCell id="heCBkYRGPCY8Ef2x84Ss-54" style="edgeStyle=orthogonalEdgeStyle;rounded=0;orthogonalLoop=1;jettySize=auto;html=1;exitX=1;exitY=0.5;exitDx=0;exitDy=0;entryX=0.5;entryY=1;entryDx=0;entryDy=0;startArrow=classic;startFill=1;" edge="1" parent="1" source="heCBkYRGPCY8Ef2x84Ss-30" target="heCBkYRGPCY8Ef2x84Ss-53">
          <mxGeometry relative="1" as="geometry" />
        </mxCell>
        <mxCell id="heCBkYRGPCY8Ef2x84Ss-55" value="SQL" style="text;html=1;align=center;verticalAlign=middle;resizable=0;points=[];autosize=1;strokeColor=none;fillColor=none;" vertex="1" parent="1">
          <mxGeometry x="-515" y="35" width="50" height="30" as="geometry" />
        </mxCell>
        <mxCell id="heCBkYRGPCY8Ef2x84Ss-103" style="edgeStyle=orthogonalEdgeStyle;rounded=0;orthogonalLoop=1;jettySize=auto;html=1;exitX=0.75;exitY=0;exitDx=0;exitDy=0;entryX=1;entryY=0.7;entryDx=0;entryDy=0;startArrow=classic;startFill=1;" edge="1" parent="1" source="heCBkYRGPCY8Ef2x84Ss-60" target="heCBkYRGPCY8Ef2x84Ss-53">
          <mxGeometry relative="1" as="geometry" />
        </mxCell>
        <mxCell id="heCBkYRGPCY8Ef2x84Ss-60" value="MainWindowAdmin" style="swimlane;fontStyle=0;childLayout=stackLayout;horizontal=1;startSize=30;horizontalStack=0;resizeParent=1;resizeParentMax=0;resizeLast=0;collapsible=1;marginBottom=0;" vertex="1" parent="1">
          <mxGeometry x="-120" y="200" width="420" height="60" as="geometry" />
        </mxCell>
        <mxCell id="heCBkYRGPCY8Ef2x84Ss-61" value="Albom" style="text;strokeColor=none;fillColor=none;align=left;verticalAlign=middle;spacingLeft=4;spacingRight=4;overflow=hidden;points=[[0,0.5],[1,0.5]];portConstraint=eastwest;rotatable=0;" vertex="1" parent="heCBkYRGPCY8Ef2x84Ss-60">
          <mxGeometry y="30" width="420" height="30" as="geometry" />
        </mxCell>
        <mxCell id="heCBkYRGPCY8Ef2x84Ss-68" style="edgeStyle=orthogonalEdgeStyle;rounded=0;orthogonalLoop=1;jettySize=auto;html=1;exitX=0.671;exitY=1;exitDx=0;exitDy=0;entryX=0.5;entryY=0;entryDx=0;entryDy=0;exitPerimeter=0;" edge="1" parent="1" source="heCBkYRGPCY8Ef2x84Ss-31" target="heCBkYRGPCY8Ef2x84Ss-60">
          <mxGeometry relative="1" as="geometry">
            <mxPoint x="-590" y="160" as="sourcePoint" />
          </mxGeometry>
        </mxCell>
        <mxCell id="heCBkYRGPCY8Ef2x84Ss-62" value="Autor" style="text;strokeColor=none;fillColor=none;align=left;verticalAlign=middle;spacingLeft=4;spacingRight=4;overflow=hidden;points=[[0,0.5],[1,0.5]];portConstraint=eastwest;rotatable=0;" vertex="1" parent="1">
          <mxGeometry x="-70" y="230" width="50" height="30" as="geometry" />
        </mxCell>
        <mxCell id="heCBkYRGPCY8Ef2x84Ss-63" value="IdPłyty" style="text;strokeColor=none;fillColor=none;align=left;verticalAlign=middle;spacingLeft=4;spacingRight=4;overflow=hidden;points=[[0,0.5],[1,0.5]];portConstraint=eastwest;rotatable=0;" vertex="1" parent="1">
          <mxGeometry x="-30" y="230" width="50" height="30" as="geometry" />
        </mxCell>
        <mxCell id="heCBkYRGPCY8Ef2x84Ss-64" value="Data utworzenia" style="text;strokeColor=none;fillColor=none;align=left;verticalAlign=middle;spacingLeft=4;spacingRight=4;overflow=hidden;points=[[0,0.5],[1,0.5]];portConstraint=eastwest;rotatable=0;" vertex="1" parent="1">
          <mxGeometry x="20" y="235" width="100" height="20" as="geometry" />
        </mxCell>
        <mxCell id="heCBkYRGPCY8Ef2x84Ss-65" value="Data  dodania" style="text;strokeColor=none;fillColor=none;align=left;verticalAlign=middle;spacingLeft=4;spacingRight=4;overflow=hidden;points=[[0,0.5],[1,0.5]];portConstraint=eastwest;rotatable=0;" vertex="1" parent="1">
          <mxGeometry x="120" y="230" width="90" height="30" as="geometry" />
        </mxCell>
        <mxCell id="heCBkYRGPCY8Ef2x84Ss-66" value="Cena" style="text;strokeColor=none;fillColor=none;align=left;verticalAlign=middle;spacingLeft=4;spacingRight=4;overflow=hidden;points=[[0,0.5],[1,0.5]];portConstraint=eastwest;rotatable=0;" vertex="1" parent="1">
          <mxGeometry x="210" y="230" width="40" height="30" as="geometry" />
        </mxCell>
        <mxCell id="heCBkYRGPCY8Ef2x84Ss-67" value="Zniżki promocyjne" style="text;strokeColor=none;fillColor=none;align=left;verticalAlign=middle;spacingLeft=4;spacingRight=4;overflow=hidden;points=[[0,0.5],[1,0.5]];portConstraint=eastwest;rotatable=0;" vertex="1" parent="1">
          <mxGeometry x="260" y="230" width="40" height="30" as="geometry" />
        </mxCell>
        <mxCell id="heCBkYRGPCY8Ef2x84Ss-105" style="edgeStyle=orthogonalEdgeStyle;rounded=0;orthogonalLoop=1;jettySize=auto;html=1;exitX=0.5;exitY=0;exitDx=0;exitDy=0;entryX=0.922;entryY=1.144;entryDx=0;entryDy=0;entryPerimeter=0;startArrow=classic;startFill=1;" edge="1" parent="1" source="heCBkYRGPCY8Ef2x84Ss-87" target="heCBkYRGPCY8Ef2x84Ss-55">
          <mxGeometry relative="1" as="geometry">
            <Array as="points">
              <mxPoint x="-360" y="100" />
              <mxPoint x="-469" y="100" />
            </Array>
          </mxGeometry>
        </mxCell>
        <mxCell id="heCBkYRGPCY8Ef2x84Ss-87" value="MainWindowAdmin" style="swimlane;fontStyle=0;childLayout=stackLayout;horizontal=1;startSize=30;horizontalStack=0;resizeParent=1;resizeParentMax=0;resizeLast=0;collapsible=1;marginBottom=0;" vertex="1" parent="1">
          <mxGeometry x="-570" y="200" width="420" height="120" as="geometry" />
        </mxCell>
        <mxCell id="heCBkYRGPCY8Ef2x84Ss-88" value="Albom" style="text;strokeColor=none;fillColor=none;align=left;verticalAlign=middle;spacingLeft=4;spacingRight=4;overflow=hidden;points=[[0,0.5],[1,0.5]];portConstraint=eastwest;rotatable=0;" vertex="1" parent="heCBkYRGPCY8Ef2x84Ss-87">
          <mxGeometry y="30" width="420" height="30" as="geometry" />
        </mxCell>
        <mxCell id="heCBkYRGPCY8Ef2x84Ss-96" value="" style="whiteSpace=wrap;html=1;" vertex="1" parent="heCBkYRGPCY8Ef2x84Ss-87">
          <mxGeometry y="60" width="420" height="60" as="geometry" />
        </mxCell>
        <mxCell id="heCBkYRGPCY8Ef2x84Ss-89" value="Autor" style="text;strokeColor=none;fillColor=none;align=left;verticalAlign=middle;spacingLeft=4;spacingRight=4;overflow=hidden;points=[[0,0.5],[1,0.5]];portConstraint=eastwest;rotatable=0;" vertex="1" parent="1">
          <mxGeometry x="-520" y="230" width="50" height="30" as="geometry" />
        </mxCell>
        <mxCell id="heCBkYRGPCY8Ef2x84Ss-90" value="IdPłyty" style="text;strokeColor=none;fillColor=none;align=left;verticalAlign=middle;spacingLeft=4;spacingRight=4;overflow=hidden;points=[[0,0.5],[1,0.5]];portConstraint=eastwest;rotatable=0;" vertex="1" parent="1">
          <mxGeometry x="-480" y="230" width="50" height="30" as="geometry" />
        </mxCell>
        <mxCell id="heCBkYRGPCY8Ef2x84Ss-91" value="Data utworzenia" style="text;strokeColor=none;fillColor=none;align=left;verticalAlign=middle;spacingLeft=4;spacingRight=4;overflow=hidden;points=[[0,0.5],[1,0.5]];portConstraint=eastwest;rotatable=0;" vertex="1" parent="1">
          <mxGeometry x="-430" y="235" width="100" height="20" as="geometry" />
        </mxCell>
        <mxCell id="heCBkYRGPCY8Ef2x84Ss-92" value="Data  dodania" style="text;strokeColor=none;fillColor=none;align=left;verticalAlign=middle;spacingLeft=4;spacingRight=4;overflow=hidden;points=[[0,0.5],[1,0.5]];portConstraint=eastwest;rotatable=0;" vertex="1" parent="1">
          <mxGeometry x="-330" y="230" width="90" height="30" as="geometry" />
        </mxCell>
        <mxCell id="heCBkYRGPCY8Ef2x84Ss-93" value="Cena" style="text;strokeColor=none;fillColor=none;align=left;verticalAlign=middle;spacingLeft=4;spacingRight=4;overflow=hidden;points=[[0,0.5],[1,0.5]];portConstraint=eastwest;rotatable=0;" vertex="1" parent="1">
          <mxGeometry x="-240" y="230" width="40" height="30" as="geometry" />
        </mxCell>
        <mxCell id="heCBkYRGPCY8Ef2x84Ss-94" value="Zniżki promocyjne" style="text;strokeColor=none;fillColor=none;align=left;verticalAlign=middle;spacingLeft=4;spacingRight=4;overflow=hidden;points=[[0,0.5],[1,0.5]];portConstraint=eastwest;rotatable=0;" vertex="1" parent="1">
          <mxGeometry x="-190" y="230" width="40" height="30" as="geometry" />
        </mxCell>
        <mxCell id="heCBkYRGPCY8Ef2x84Ss-97" value="" style="whiteSpace=wrap;html=1;" vertex="1" parent="1">
          <mxGeometry x="-120" y="260" width="420" height="60" as="geometry" />
        </mxCell>
        <mxCell id="heCBkYRGPCY8Ef2x84Ss-98" value="" style="whiteSpace=wrap;html=1;" vertex="1" parent="1">
          <mxGeometry x="-570" y="320" width="420" height="60" as="geometry" />
        </mxCell>
        <mxCell id="heCBkYRGPCY8Ef2x84Ss-100" value="" style="whiteSpace=wrap;html=1;" vertex="1" parent="1">
          <mxGeometry x="-120" y="320" width="420" height="60" as="geometry" />
        </mxCell>
        <mxCell id="heCBkYRGPCY8Ef2x84Ss-108" value="Dodaj Płytę" style="text;strokeColor=none;fillColor=none;align=left;verticalAlign=middle;spacingLeft=4;spacingRight=4;overflow=hidden;points=[[0,0.5],[1,0.5]];portConstraint=eastwest;rotatable=0;" vertex="1" parent="1">
          <mxGeometry x="-120" y="320" width="80" height="30" as="geometry" />
        </mxCell>
        <mxCell id="heCBkYRGPCY8Ef2x84Ss-109" value="Usuń Płytę" style="text;strokeColor=none;fillColor=none;align=left;verticalAlign=middle;spacingLeft=4;spacingRight=4;overflow=hidden;points=[[0,0.5],[1,0.5]];portConstraint=eastwest;rotatable=0;" vertex="1" parent="1">
          <mxGeometry x="-120" y="350" width="80" height="30" as="geometry" />
        </mxCell>
        <mxCell id="heCBkYRGPCY8Ef2x84Ss-110" value="Dodaj Użytkownika" style="text;strokeColor=none;fillColor=none;align=left;verticalAlign=middle;spacingLeft=4;spacingRight=4;overflow=hidden;points=[[0,0.5],[1,0.5]];portConstraint=eastwest;rotatable=0;" vertex="1" parent="1">
          <mxGeometry x="180" y="320" width="120" height="30" as="geometry" />
        </mxCell>
        <mxCell id="heCBkYRGPCY8Ef2x84Ss-111" value="Usuń Użytkownika" style="text;strokeColor=none;fillColor=none;align=left;verticalAlign=middle;spacingLeft=4;spacingRight=4;overflow=hidden;points=[[0,0.5],[1,0.5]];portConstraint=eastwest;rotatable=0;" vertex="1" parent="1">
          <mxGeometry x="180" y="350" width="110" height="30" as="geometry" />
        </mxCell>
        <mxCell id="heCBkYRGPCY8Ef2x84Ss-112" value="Dodaj Zniżkę" style="text;strokeColor=none;fillColor=none;align=left;verticalAlign=middle;spacingLeft=4;spacingRight=4;overflow=hidden;points=[[0,0.5],[1,0.5]];portConstraint=eastwest;rotatable=0;" vertex="1" parent="1">
          <mxGeometry x="90" y="320" width="120" height="30" as="geometry" />
        </mxCell>
        <mxCell id="heCBkYRGPCY8Ef2x84Ss-113" value="Usuń Zniżkę" style="text;strokeColor=none;fillColor=none;align=left;verticalAlign=middle;spacingLeft=4;spacingRight=4;overflow=hidden;points=[[0,0.5],[1,0.5]];portConstraint=eastwest;rotatable=0;" vertex="1" parent="1">
          <mxGeometry x="90" y="350" width="110" height="30" as="geometry" />
        </mxCell>
        <mxCell id="heCBkYRGPCY8Ef2x84Ss-114" value="Wyszukaj Płytę" style="text;strokeColor=none;fillColor=none;align=left;verticalAlign=middle;spacingLeft=4;spacingRight=4;overflow=hidden;points=[[0,0.5],[1,0.5]];portConstraint=eastwest;rotatable=0;" vertex="1" parent="1">
          <mxGeometry x="-30" y="320" width="120" height="30" as="geometry" />
        </mxCell>
        <mxCell id="heCBkYRGPCY8Ef2x84Ss-115" value="Edytuj Płytę" style="text;strokeColor=none;fillColor=none;align=left;verticalAlign=middle;spacingLeft=4;spacingRight=4;overflow=hidden;points=[[0,0.5],[1,0.5]];portConstraint=eastwest;rotatable=0;" vertex="1" parent="1">
          <mxGeometry x="-30" y="350" width="120" height="30" as="geometry" />
        </mxCell>
        <mxCell id="heCBkYRGPCY8Ef2x84Ss-116" value="Wyszukaj Płytę" style="text;strokeColor=none;fillColor=none;align=left;verticalAlign=middle;spacingLeft=4;spacingRight=4;overflow=hidden;points=[[0,0.5],[1,0.5]];portConstraint=eastwest;rotatable=0;" vertex="1" parent="1">
          <mxGeometry x="-570" y="320" width="120" height="30" as="geometry" />
        </mxCell>
        <mxCell id="heCBkYRGPCY8Ef2x84Ss-117" value="Kupuj Płytę" style="text;strokeColor=none;fillColor=none;align=left;verticalAlign=middle;spacingLeft=4;spacingRight=4;overflow=hidden;points=[[0,0.5],[1,0.5]];portConstraint=eastwest;rotatable=0;" vertex="1" parent="1">
          <mxGeometry x="-570" y="350" width="120" height="30" as="geometry" />
        </mxCell>
        <mxCell id="heCBkYRGPCY8Ef2x84Ss-119" value="" style="whiteSpace=wrap;html=1;" vertex="1" parent="1">
          <mxGeometry x="-570" y="380" width="420" height="60" as="geometry" />
        </mxCell>
        <mxCell id="heCBkYRGPCY8Ef2x84Ss-120" value="Wyloguj" style="text;strokeColor=none;fillColor=none;align=left;verticalAlign=middle;spacingLeft=4;spacingRight=4;overflow=hidden;points=[[0,0.5],[1,0.5]];portConstraint=eastwest;rotatable=0;" vertex="1" parent="1">
          <mxGeometry x="-570" y="380" width="120" height="30" as="geometry" />
        </mxCell>
        <mxCell id="heCBkYRGPCY8Ef2x84Ss-121" value="Wyjdż " style="text;strokeColor=none;fillColor=none;align=left;verticalAlign=middle;spacingLeft=4;spacingRight=4;overflow=hidden;points=[[0,0.5],[1,0.5]];portConstraint=eastwest;rotatable=0;" vertex="1" parent="1">
          <mxGeometry x="-570" y="410" width="120" height="30" as="geometry" />
        </mxCell>
        <mxCell id="heCBkYRGPCY8Ef2x84Ss-122" value="" style="whiteSpace=wrap;html=1;" vertex="1" parent="1">
          <mxGeometry x="-120" y="380" width="420" height="60" as="geometry" />
        </mxCell>
        <mxCell id="heCBkYRGPCY8Ef2x84Ss-123" value="Wyloguj" style="text;strokeColor=none;fillColor=none;align=left;verticalAlign=middle;spacingLeft=4;spacingRight=4;overflow=hidden;points=[[0,0.5],[1,0.5]];portConstraint=eastwest;rotatable=0;" vertex="1" parent="1">
          <mxGeometry x="-120" y="380" width="120" height="30" as="geometry" />
        </mxCell>
        <mxCell id="heCBkYRGPCY8Ef2x84Ss-124" value="Wyjdż " style="text;strokeColor=none;fillColor=none;align=left;verticalAlign=middle;spacingLeft=4;spacingRight=4;overflow=hidden;points=[[0,0.5],[1,0.5]];portConstraint=eastwest;rotatable=0;" vertex="1" parent="1">
          <mxGeometry x="-120" y="410" width="120" height="30" as="geometry" />
        </mxCell>
      </root>
    </mxGraphModel>
  </diagram>
</mxfile>
